# xmcd
#
# Track frame offsets:
#	150
#	16076
#	40903
#	59882
#	73606
#	91302
#	109751
#	125534
#	144463
#	157705
#	174529
#	194356
#	210650
#	226736
#	239254
#	253457
#	268264
#	287303
#	308014
#	320698
#	335829
#
# Disc length: 4655 seconds
#
# Revision: 1
# Processed by: cddbd v1.5.2PL0 Copyright (c) Steve Scherf et al.
# Submitted via: EZCDAudioConverter 2.1.7.1
#
DISCID=35122d15
DTITLE=V/A - Another Splash Of Colour 2/3
DYEAR=2016
DGENRE=
TTITLE0=Nick Nicely - Hilly Fields (1892)
TTITLE1=High Tide - Electric Blue
TTITLE2=Third Eye - Pass Myself
TTITLE3=Miles Over Matter - Park My Car
TTITLE4=Squire - No Time Tomorrow
TTITLE5=Marble Staircase - Still Dreaming
TTITLE6=The Barracudas - Inside Mind
TTITLE7=Deep Freeze Mice - A Red Light For The Greens
TTITLE8=Paul Roland - Dr. Strange
TTITLE9=Michael Moorcock's Deep Fix - Brothel In Rosenstrasse
TTITLE10=Cleaners From Venus - Wivenhoe Bells II
TTITLE11=Scarlet Party - 101 Dam-Nations
TTITLE12=Le Mat - Waltz Of The Fool
TTITLE13=Dream Factory - The Haze
TTITLE14=Legendary Pink Dots - Waving At The Aeroplanes
TTITLE15=Modern Art - Fiction and Literature
TTITLE16=The Jetset - And We Dance On
TTITLE17=The Heartbeats - Forever
TTITLE18=Purple Hearts - Hazy Darkness...
TTITLE19=Pink Umbrellas - Raspberry Rainbow
TTITLE20=TV Personalities - The Dream Inspires [Live]
EXTD=
EXTT0=
EXTT1=
EXTT2=
EXTT3=
EXTT4=
EXTT5=
EXTT6=
EXTT7=
EXTT8=
EXTT9=
EXTT10=
EXTT11=
EXTT12=
EXTT13=
EXTT14=
EXTT15=
EXTT16=
EXTT17=
EXTT18=
EXTT19=
EXTT20=
PLAYORDER=
